<svg width="11" height="19" viewBox="0 0 11 19" fill="none" xmlns="http://www.w3.org/2000/svg">
<path d="M3.42286 9.50631L10.3521 16.4618C10.5916 16.7062 10.7251 17.0354 10.7233 17.3777C10.7216 17.72 10.5849 18.0478 10.3428 18.2898C10.1008 18.5319 9.77299 18.6686 9.43069 18.6703C9.08839 18.6721 8.75924 18.5386 8.51476 18.299C8.17355 17.9841 7.85859 17.6691 7.51738 17.3279C5.2339 15.0444 2.92416 12.7347 0.640678 10.425C0.519102 10.3048 0.422578 10.1618 0.356698 10.0041C0.290819 9.84642 0.256897 9.67721 0.256897 9.50631C0.256897 9.33541 0.290819 9.16621 0.356698 9.00852C0.422578 8.85083 0.519102 8.70778 0.640678 8.58767L8.51476 0.713585C8.75924 0.473998 9.08839 0.340573 9.43069 0.342302C9.77299 0.344031 10.1008 0.480774 10.3428 0.722819C10.5849 0.964863 10.7216 1.29265 10.7233 1.63495C10.7251 1.97725 10.5916 2.3064 10.3521 2.55087L3.42286 9.50631Z" fill="white"/>
</svg>
