<svg width="12" height="7" viewBox="0 0 12 7" fill="none" xmlns="http://www.w3.org/2000/svg">
<path d="M6 4.8826L10.554 0.248327C10.714 0.0880901 10.9295 -0.00114472 11.1536 1.15138e-05C11.3778 0.00116775 11.5924 0.0926224 11.7509 0.254502C11.9093 0.416382 11.9989 0.635607 12 0.864537C12.0011 1.09347 11.9138 1.3136 11.7569 1.47711C11.5507 1.70531 11.3445 1.91596 11.1211 2.14416C9.62598 3.67137 8.11373 5.21612 6.60147 6.74333C6.52283 6.82464 6.42917 6.88919 6.32592 6.93325C6.22268 6.97731 6.11189 7 6 7C5.88811 7 5.77732 6.97731 5.67408 6.93325C5.57083 6.88919 5.47717 6.82464 5.39853 6.74333L0.243102 1.47711C0.0862363 1.3136 -0.00112131 1.09347 1.0596e-05 0.864538C0.0011425 0.635608 0.0906732 0.416383 0.249148 0.254503C0.407622 0.0926229 0.622235 0.00116822 0.846349 1.19643e-05C1.07046 -0.00114429 1.28597 0.0880906 1.44604 0.248327L6 4.8826Z" fill="white"/>
</svg>
