<svg width="11" height="19" viewBox="0 0 11 19" fill="none" xmlns="http://www.w3.org/2000/svg">
<path d="M7.55737 9.50638L0.628174 2.55094C0.388587 2.30647 0.255162 1.97731 0.256891 1.63502C0.25862 1.29272 0.395364 0.964932 0.637408 0.722888C0.879452 0.480843 1.20724 0.3441 1.54954 0.342371C1.89183 0.340642 2.22099 0.474067 2.46546 0.713654C2.80667 1.02862 3.12163 1.34358 3.46284 1.68479C5.74633 3.96828 8.05606 6.27801 10.3395 8.58774C10.4611 8.70785 10.5576 8.85089 10.6235 9.00859C10.6894 9.16628 10.7233 9.33548 10.7233 9.50638C10.7233 9.67728 10.6894 9.84648 10.6235 10.0042C10.5576 10.1619 10.4611 10.3049 10.3395 10.425L2.46546 18.2991C2.22099 18.5387 1.89183 18.6721 1.54954 18.6704C1.20724 18.6687 0.879452 18.5319 0.637408 18.2899C0.395364 18.0478 0.25862 17.72 0.256891 17.3777C0.255162 17.0355 0.388587 16.7063 0.628174 16.4618L7.55737 9.50638Z" fill="white"/>
</svg>
