<svg width="158" height="18" viewBox="0 0 158 18" fill="none" xmlns="http://www.w3.org/2000/svg">
<path d="M11.9603 17.6845C10.1525 17.6845 8.55886 17.4625 7.17926 17.0185C5.79966 16.5745 4.64999 15.964 3.73025 15.187C2.81052 14.41 2.11279 13.4982 1.63707 12.4516C1.1772 11.3891 0.947266 10.2474 0.947266 9.02635C0.947266 7.80533 1.1772 6.67152 1.63707 5.62492C2.11279 4.56247 2.81052 3.64274 3.73025 2.86572C4.64999 2.0887 5.79966 1.47819 7.17926 1.03418C8.55886 0.590169 10.1525 0.368164 11.9603 0.368164C13.6729 0.368164 15.1794 0.550525 16.4797 0.915247C17.78 1.27997 18.89 1.78741 19.8097 2.43757C20.7295 3.07187 21.451 3.81717 21.9743 4.67347C22.4976 5.52978 22.8385 6.44951 22.9971 7.43268H17.8593C17.7641 7.08381 17.5818 6.74288 17.3122 6.40987C17.0585 6.061 16.6938 5.75178 16.218 5.48221C15.7423 5.19677 15.1556 4.96684 14.4578 4.7924C13.7601 4.61797 12.9276 4.53076 11.9603 4.53076C10.993 4.53076 10.1367 4.64969 9.39138 4.88755C8.66193 5.10955 8.05142 5.4267 7.55984 5.839C7.06826 6.23544 6.69561 6.71116 6.44189 7.26617C6.20402 7.80533 6.08509 8.39205 6.08509 9.02635C6.08509 9.66065 6.20402 10.2553 6.44189 10.8103C6.69561 11.3495 7.06826 11.8252 7.55984 12.2375C8.05142 12.6339 8.66193 12.9511 9.39138 13.1889C10.1367 13.4109 10.993 13.522 11.9603 13.522C12.9276 13.522 13.7601 13.4347 14.4578 13.2603C15.1556 13.0859 15.7423 12.8639 16.218 12.5943C16.6938 12.3089 17.0585 11.9996 17.3122 11.6666C17.5818 11.3178 17.7641 10.9689 17.8593 10.62H22.9971C22.8385 11.6032 22.4976 12.5309 21.9743 13.403C21.451 14.2593 20.7295 15.0046 19.8097 15.6389C18.9059 16.2732 17.7958 16.7727 16.4797 17.1375C15.1794 17.5022 13.6729 17.6845 11.9603 17.6845Z" fill="white"/>
<path d="M36.5281 17.6845C34.6728 17.6845 33.0474 17.4625 31.6519 17.0185C30.2565 16.5745 29.091 15.964 28.1554 15.187C27.2198 14.3941 26.5141 13.4744 26.0384 12.4278C25.5785 11.3653 25.3486 10.2315 25.3486 9.02635C25.3486 7.80533 25.5785 6.67152 26.0384 5.62492C26.5141 4.57833 27.2198 3.66652 28.1554 2.8895C29.091 2.09663 30.2565 1.47819 31.6519 1.03418C33.0474 0.590169 34.6728 0.368164 36.5281 0.368164C38.3835 0.368164 40.0088 0.590169 41.4043 1.03418C42.7998 1.47819 43.9653 2.09663 44.9009 2.8895C45.8365 3.66652 46.5342 4.57833 46.9941 5.62492C47.4698 6.67152 47.7077 7.80533 47.7077 9.02635C47.7077 10.2315 47.4698 11.3653 46.9941 12.4278C46.5342 13.4744 45.8365 14.3941 44.9009 15.187C43.9653 15.964 42.7998 16.5745 41.4043 17.0185C40.0088 17.4625 38.3835 17.6845 36.5281 17.6845ZM36.5281 13.522C37.543 13.522 38.431 13.4109 39.1922 13.1889C39.9533 12.9511 40.5797 12.6339 41.0713 12.2375C41.5787 11.8252 41.9514 11.3495 42.1892 10.8103C42.443 10.2553 42.5698 9.66065 42.5698 9.02635C42.5698 8.39205 42.443 7.80533 42.1892 7.26617C41.9514 6.71116 41.5787 6.23544 41.0713 5.839C40.5797 5.4267 39.9533 5.10955 39.1922 4.88755C38.431 4.64969 37.543 4.53076 36.5281 4.53076C35.5132 4.53076 34.6252 4.64969 33.8641 4.88755C33.1029 5.10955 32.4686 5.4267 31.9612 5.839C31.4696 6.23544 31.0969 6.71116 30.8432 7.26617C30.6054 7.80533 30.4864 8.39205 30.4864 9.02635C30.4864 9.66065 30.6054 10.2553 30.8432 10.8103C31.0969 11.3495 31.4696 11.8252 31.9612 12.2375C32.4686 12.6339 33.1029 12.9511 33.8641 13.1889C34.6252 13.4109 35.5132 13.522 36.5281 13.522Z" fill="white"/>
<path d="M50.9729 17.3515V0.701171H58.965L66.0058 14.2831H66.4577C66.2516 13.6647 66.0771 12.9828 65.9344 12.2375C65.7917 11.4922 65.7203 10.5645 65.7203 9.45451V0.701171H70.6441V17.3515H62.6757L55.6112 3.7696H55.183C55.2782 4.07089 55.3733 4.38804 55.4685 4.72105C55.5636 5.05405 55.6429 5.41877 55.7063 5.81521C55.7698 6.19579 55.8173 6.61601 55.849 7.07588C55.8966 7.53575 55.9204 8.04319 55.9204 8.5982V17.3515H50.9729Z" fill="white"/>
<path d="M74.538 17.3515V0.701171H82.5301L89.5709 14.2831H90.0228C89.8167 13.6647 89.6422 12.9828 89.4995 12.2375C89.3568 11.4922 89.2854 10.5645 89.2854 9.45451V0.701171H94.2092V17.3515H86.2408L79.1763 3.7696H78.7481C78.8433 4.07089 78.9384 4.38804 79.0336 4.72105C79.1287 5.05405 79.208 5.41877 79.2714 5.81521C79.3349 6.19579 79.3824 6.61601 79.4141 7.07588C79.4617 7.53575 79.4855 8.04319 79.4855 8.5982V17.3515H74.538Z" fill="white"/>
<path d="M114.944 4.64969H103.241V7.14724H113.279V10.6438H103.241V13.403H114.944V17.3515H98.1031V0.701171H114.944V4.64969Z" fill="white"/>
<path d="M128.253 17.6845C126.445 17.6845 124.851 17.4625 123.472 17.0185C122.092 16.5745 120.942 15.964 120.023 15.187C119.103 14.41 118.405 13.4982 117.929 12.4516C117.47 11.3891 117.24 10.2474 117.24 9.02635C117.24 7.80533 117.47 6.67152 117.929 5.62492C118.405 4.56247 119.103 3.64274 120.023 2.86572C120.942 2.0887 122.092 1.47819 123.472 1.03418C124.851 0.590169 126.445 0.368164 128.253 0.368164C129.965 0.368164 131.472 0.550525 132.772 0.915247C134.072 1.27997 135.182 1.78741 136.102 2.43757C137.022 3.07187 137.743 3.81717 138.267 4.67347C138.79 5.52978 139.131 6.44951 139.289 7.43268H134.152C134.057 7.08381 133.874 6.74288 133.605 6.40987C133.351 6.061 132.986 5.75178 132.51 5.48221C132.035 5.19677 131.448 4.96684 130.75 4.7924C130.053 4.61797 129.22 4.53076 128.253 4.53076C127.285 4.53076 126.429 4.64969 125.684 4.88755C124.954 5.10955 124.344 5.4267 123.852 5.839C123.361 6.23544 122.988 6.71116 122.734 7.26617C122.496 7.80533 122.377 8.39205 122.377 9.02635C122.377 9.66065 122.496 10.2553 122.734 10.8103C122.988 11.3495 123.361 11.8252 123.852 12.2375C124.344 12.6339 124.954 12.9511 125.684 13.1889C126.429 13.4109 127.285 13.522 128.253 13.522C129.22 13.522 130.053 13.4347 130.75 13.2603C131.448 13.0859 132.035 12.8639 132.51 12.5943C132.986 12.3089 133.351 11.9996 133.605 11.6666C133.874 11.3178 134.057 10.9689 134.152 10.62H139.289C139.131 11.6032 138.79 12.5309 138.267 13.403C137.743 14.2593 137.022 15.0046 136.102 15.6389C135.198 16.2732 134.088 16.7727 132.772 17.1375C131.472 17.5022 129.965 17.6845 128.253 17.6845Z" fill="white"/>
<path d="M146.255 17.3515V4.93512H139.761V0.701171H157.886V4.93512H151.392V17.3515H146.255Z" fill="white"/>
</svg>
