<svg width="10" height="17" viewBox="0 0 10 17" fill="none" xmlns="http://www.w3.org/2000/svg">
<path d="M6.79071 0.111328C5.71942 0.111328 4.69197 0.53691 3.9344 1.29444C3.17692 2.05197 2.75132 3.0794 2.75132 4.15072V6.39968H0.589699C0.481173 6.39968 0.393188 6.48763 0.393188 6.59619V9.56569C0.393188 9.67425 0.481173 9.7622 0.589699 9.7622H2.75132V15.854C2.75132 15.9626 2.8393 16.0505 2.94783 16.0505H5.91733C6.02589 16.0505 6.11384 15.9626 6.11384 15.854V9.7622H8.29459C8.38481 9.7622 8.46341 9.7008 8.48525 9.61337L9.22762 6.64388C9.25863 6.51985 9.16483 6.39968 9.03696 6.39968H6.11384V4.15072C6.11384 3.9712 6.1852 3.79903 6.3121 3.6721C6.439 3.54516 6.61123 3.47385 6.79071 3.47385H9.0615C9.17006 3.47385 9.25801 3.38586 9.25801 3.27734V0.307839C9.25801 0.199313 9.17006 0.111328 9.0615 0.111328H6.79071Z" fill="#FCCD03"/>
</svg>
