<svg width="27" height="27" viewBox="0 0 27 27" fill="none" xmlns="http://www.w3.org/2000/svg">
<path d="M20.071 22.7674H6.18146C5.46612 22.7674 4.78007 22.4832 4.27425 21.9774C3.76842 21.4715 3.48425 20.7855 3.48425 20.0702V6.18061C3.48425 5.46526 3.76842 4.77922 4.27425 4.27339C4.78007 3.76757 5.46612 3.4834 6.18146 3.4834H20.071C20.7864 3.4834 21.4724 3.76757 21.9782 4.27339C22.4841 4.77922 22.7682 5.46526 22.7682 6.18061V20.0702C22.7682 20.7855 22.4841 21.4715 21.9782 21.9774C21.4724 22.4832 20.7864 22.7674 20.071 22.7674ZM6.18146 4.56228C5.75226 4.56228 5.34063 4.73278 5.03713 5.03628C4.73364 5.33977 4.56314 5.7514 4.56314 6.18061V20.0702C4.56314 20.4994 4.73364 20.911 5.03713 21.2145C5.34063 21.518 5.75226 21.6885 6.18146 21.6885H20.071C20.5002 21.6885 20.9118 21.518 21.2153 21.2145C21.5188 20.911 21.6893 20.4994 21.6893 20.0702V6.18061C21.6893 5.7514 21.5188 5.33977 21.2153 5.03628C20.9118 4.73278 20.5002 4.56228 20.071 4.56228H6.18146Z" fill="#FCCD03" stroke="#FCCD03" stroke-width="0.616505"/>
<path d="M13.1262 18.0819C12.1459 18.0809 11.1879 17.7892 10.3733 17.2437C9.55878 16.6983 8.92421 15.9236 8.54985 15.0176C8.17549 14.1116 8.07815 13.1149 8.27013 12.1536C8.46211 11.1923 8.9348 10.3094 9.62843 9.61672C10.3221 8.92398 11.2055 8.45245 12.1671 8.26173C13.1287 8.071 14.1252 8.16964 15.0307 8.54518C15.9363 8.92073 16.7101 9.55631 17.2545 10.3716C17.7989 11.1869 18.0893 12.1452 18.0891 13.1255C18.0874 14.4407 17.5637 15.7013 16.6332 16.6306C15.7027 17.5599 14.4413 18.0819 13.1262 18.0819ZM13.1262 9.24156C12.3596 9.24263 11.6104 9.47087 10.9734 9.89747C10.3364 10.3241 9.84012 10.9299 9.54723 11.6384C9.25434 12.3469 9.17798 13.1263 9.32781 13.8781C9.47764 14.63 9.84693 15.3206 10.389 15.8627C10.9311 16.4048 11.6217 16.7741 12.3736 16.9239C13.1255 17.0738 13.9049 16.9974 14.6134 16.7045C15.3219 16.4116 15.9277 15.9153 16.3543 15.2783C16.7809 14.6413 17.0091 13.8922 17.0102 13.1255C17.0102 12.0954 16.601 11.1075 15.8726 10.3792C15.1442 9.65076 14.1563 9.24156 13.1262 9.24156Z" fill="#FCCD03" stroke="#FCCD03" stroke-width="0.616505"/>
<path d="M18.7364 8.7073C19.3769 8.7073 19.8962 8.18803 19.8962 7.5475C19.8962 6.90696 19.3769 6.3877 18.7364 6.3877C18.0959 6.3877 17.5766 6.90696 17.5766 7.5475C17.5766 8.18803 18.0959 8.7073 18.7364 8.7073Z" fill="#FCCD03" stroke="#FCCD03" stroke-width="0.616505"/>
</svg>
