<svg width="22" height="22" viewBox="0 0 22 22" fill="none" xmlns="http://www.w3.org/2000/svg">
<path d="M4.95927 2.2832C3.93426 2.2832 3.10333 3.11413 3.10333 4.13914C3.10333 5.16414 3.93426 5.99508 4.95927 5.99508C5.98427 5.99508 6.81521 5.16414 6.81521 4.13914C6.81521 3.11413 5.98427 2.2832 4.95927 2.2832Z" fill="#FCCD03"/>
<path d="M3.21251 7.52344C3.15221 7.52344 3.10333 7.57231 3.10333 7.63261V18.9866C3.10333 19.0468 3.15221 19.0957 3.21251 19.0957H6.70603C6.76633 19.0957 6.81521 19.0468 6.81521 18.9866V7.63261C6.81521 7.57231 6.76633 7.52344 6.70603 7.52344H3.21251Z" fill="#FCCD03"/>
<path d="M8.88945 7.52344C8.82915 7.52344 8.78027 7.57231 8.78027 7.63261V18.9866C8.78027 19.0468 8.82915 19.0957 8.88945 19.0957H12.383C12.4432 19.0957 12.4921 19.0468 12.4921 18.9866V12.8729C12.4921 12.4386 12.6646 12.0221 12.9718 11.715C13.2789 11.4078 13.6954 11.2353 14.1297 11.2353C14.5641 11.2353 14.9806 11.4078 15.2877 11.715C15.5948 12.0221 15.7673 12.4386 15.7673 12.8729V18.9866C15.7673 19.0468 15.8162 19.0957 15.8765 19.0957H19.37C19.4303 19.0957 19.4792 19.0468 19.4792 18.9866V11.4582C19.4792 9.33876 17.6358 7.68064 15.527 7.87235C14.8767 7.93147 14.2337 8.09315 13.6332 8.35048L12.4921 8.8395V7.63261C12.4921 7.57231 12.4432 7.52344 12.383 7.52344H8.88945Z" fill="#FCCD03"/>
</svg>
