<svg width="451" height="69" viewBox="0 0 451 69" fill="none" xmlns="http://www.w3.org/2000/svg">
<path d="M152.47 24C154.107 24 155.753 24.0796 157.41 24.2387C159.066 24.3978 160.653 24.6539 162.173 25.012C163.691 25.3676 165.112 25.8151 166.432 26.3497C167.754 26.8843 168.902 27.5283 169.878 28.2818C170.853 29.0352 171.618 29.9005 172.171 30.8801C172.723 31.8598 173 32.9564 173 34.1623L165.426 35.2912C165.426 34.4383 165.06 33.6725 164.332 32.9887C163.602 32.3049 162.636 31.7305 161.433 31.2656C160.23 30.8006 158.848 30.445 157.291 30.1964C155.733 29.9477 154.127 29.8259 152.468 29.8259C150.891 29.8259 149.333 29.9403 147.793 30.1665C146.256 30.3953 144.879 30.7359 143.666 31.191C142.453 31.6485 141.465 32.2154 140.708 32.8992C139.947 33.583 139.569 34.3811 139.569 35.2912V47.6516C139.569 48.5617 139.947 49.3499 140.708 50.0138C141.468 50.6777 142.453 51.2322 143.666 51.6773C144.879 52.1223 146.253 52.453 147.793 52.6719C149.333 52.8907 150.891 52.9976 152.468 52.9976C154.124 52.9976 155.731 52.8807 157.291 52.642C158.848 52.4058 160.23 52.0627 161.433 51.6176C162.636 51.1725 163.602 50.618 164.332 49.9541C165.062 49.2902 165.426 48.5219 165.426 47.6516L173 49.5513C173 50.6205 172.723 51.6027 172.171 52.4928C171.618 53.383 170.856 54.1812 169.878 54.8848C168.902 55.5885 167.754 56.1977 166.432 56.7124C165.112 57.2271 163.691 57.6523 162.173 57.9905C160.655 58.3262 159.066 58.5798 157.41 58.7489C155.753 58.9155 154.107 59 152.47 59C150.834 59 149.19 58.9155 147.546 58.7489C145.899 58.5798 144.315 58.3262 142.797 57.9905C141.279 57.6523 139.863 57.2271 138.551 56.7124C137.239 56.1977 136.095 55.5885 135.12 54.8848C134.144 54.1836 133.379 53.3904 132.827 52.5077C132.275 51.6275 132 50.6429 132 49.5513V34.1623C132 32.9564 132.275 31.8598 132.827 30.8801C133.379 29.9005 134.144 29.0327 135.12 28.2818C136.095 27.5283 137.239 26.8868 138.551 26.3497C139.863 25.8151 141.277 25.3701 142.797 25.012C144.315 24.6564 145.899 24.3978 147.546 24.2387C149.19 24.0796 150.831 24 152.47 24Z" fill="white"/>
<path d="M180 26.0038C180.555 25.8485 181.37 25.6513 182.452 25.4147C183.532 25.1806 184.815 24.9588 186.3 24.7517C187.785 24.5447 189.444 24.3672 191.277 24.2218C193.108 24.0739 195.075 24 197.174 24C200.898 24 204.184 24.276 207.026 24.8257C209.869 25.3753 212.252 26.3069 214.175 27.6231C216.098 28.9392 217.548 30.6867 218.528 32.8654C219.508 35.0442 220 37.7652 220 41.0235C220 44.2226 219.465 46.8993 218.396 49.0485C217.326 51.1977 215.859 52.9205 213.998 54.2169C212.135 55.5133 209.956 56.4351 207.459 56.9847C204.962 57.5343 202.288 57.8104 199.435 57.8104C197.097 57.8104 194.928 57.6724 192.926 57.3988C190.924 57.1252 189.151 56.6717 187.606 56.0432V69H180V26.0038ZM197.533 30.3022C196.244 30.3022 195.1 30.3416 194.1 30.4205C193.098 30.4993 192.197 30.6029 191.394 30.7286C190.591 30.8543 189.882 31.0021 189.27 31.1697C188.656 31.3373 188.101 31.5173 187.606 31.7144V50.5618C188.459 50.7959 189.255 50.9882 189.999 51.136C190.742 51.2839 191.546 51.3973 192.406 51.4737C193.267 51.5526 194.259 51.6068 195.379 51.6364C196.498 51.666 197.851 51.6807 199.435 51.6807C201.773 51.6807 203.771 51.4121 205.425 50.8723C207.079 50.3326 208.437 49.5907 209.496 48.6492C210.556 47.7052 211.332 46.5813 211.829 45.2775C212.324 43.9712 212.571 42.5516 212.571 41.021C212.571 38.9408 212.232 37.2131 211.561 35.8378C210.887 34.4625 209.907 33.3633 208.618 32.5401C207.33 31.7144 205.756 31.1352 203.893 30.8025C202.032 30.4698 199.91 30.3022 197.533 30.3022Z" fill="white"/>
<path d="M247.438 24C248.428 24 249.626 24.0499 251.034 24.1498C252.441 24.2496 253.906 24.4218 255.432 24.6715C256.957 24.9211 258.466 25.2581 259.963 25.6849C261.458 26.1117 262.805 26.6684 264.004 27.3548C265.203 28.0413 266.167 28.8625 266.901 29.816C267.634 30.7695 268 31.8928 268 33.1858V56.2702C266.336 56.6072 264.454 56.8942 262.355 57.1338C260.552 57.3535 258.404 57.5507 255.907 57.7304C253.411 57.9101 250.628 58 247.56 58C244.509 58 241.266 57.8702 237.829 57.6106C234.393 57.3535 230.802 56.9067 227.06 56.2702V45.5318C227.06 44.3785 227.331 43.3676 227.875 42.5039C228.42 41.6403 229.168 40.8989 230.118 40.2824C231.068 39.6658 232.187 39.1591 233.475 38.7622C234.763 38.3653 236.151 38.0458 237.635 37.8087C239.12 37.569 240.667 37.4068 242.271 37.3169C243.874 37.2271 245.478 37.1821 247.082 37.1821C249.519 37.1821 251.593 37.3369 253.306 37.6439C255.02 37.9535 256.442 38.2854 257.568 38.6424C258.876 39.0792 259.956 39.5685 260.809 40.1051V35.2726C260.809 34.4564 260.61 33.7574 260.214 33.1708C259.819 32.5842 259.284 32.0875 258.61 31.6781C257.936 31.2713 257.163 30.9418 256.293 30.6947C255.42 30.4475 254.51 30.2528 253.56 30.1131C252.61 29.9758 251.643 29.8859 250.663 29.846C249.683 29.806 248.766 29.7861 247.915 29.7861C247.023 29.7861 246.073 29.811 245.063 29.8609C244.053 29.9109 243.046 30.0057 242.047 30.143C241.045 30.2828 240.085 30.4775 239.165 30.7246C238.245 30.9742 237.427 31.3062 236.715 31.7231C236.002 32.1424 235.432 32.6442 235.007 33.2307C234.582 33.8173 234.368 34.5188 234.368 35.3325L227 33.423C227 32.0925 227.326 30.9318 227.98 29.9483C228.634 28.9648 229.499 28.1236 230.578 27.4272C231.658 26.7308 232.901 26.1592 234.308 25.7124C235.713 25.2655 237.175 24.9161 238.69 24.6665C240.204 24.4194 241.714 24.2446 243.22 24.1448C244.722 24.0499 246.13 24 247.438 24ZM260.809 45.8313C260.314 45.3945 259.7 44.9676 258.966 44.5483C258.232 44.1289 257.332 43.757 256.261 43.43C255.189 43.103 253.918 42.8334 252.443 42.6237C250.969 42.4141 249.238 42.3117 247.259 42.3117C245.496 42.3117 243.827 42.3467 242.253 42.4166C240.679 42.4865 239.297 42.6861 238.108 43.0131C236.919 43.3401 235.977 43.8618 235.286 44.5782C234.592 45.2946 234.244 46.2906 234.244 47.5611V51.3777C235.987 51.6548 237.909 51.8844 240.008 52.0642C242.106 52.2439 244.444 52.3337 247.02 52.3337C249.079 52.3337 251.275 52.2589 253.602 52.1091C255.93 51.9593 258.332 51.6573 260.809 51.2005V45.8313Z" fill="white"/>
<path d="M283.968 48C284.699 48 285.426 48.0598 286.147 48.1793C286.866 48.2988 287.51 48.4781 288.081 48.7146C288.649 48.9512 289.111 49.26 289.467 49.6384C289.822 50.0144 290 50.4602 290 50.9756V55.3207C290 55.7963 289.822 56.2047 289.467 56.5408C289.111 56.8795 288.649 57.1559 288.081 57.375C287.513 57.5941 286.868 57.7535 286.147 57.8506C285.426 57.9502 284.699 58 283.968 58C283.237 58 282.516 57.9502 281.807 57.8506C281.096 57.751 280.457 57.5916 279.888 57.375C279.32 57.1559 278.864 56.8795 278.517 56.5408C278.173 56.2047 278 55.7988 278 55.3207V50.9756C278 50.4602 278.173 50.0144 278.517 49.6384C278.864 49.26 279.32 48.9537 279.888 48.7146C280.457 48.4781 281.096 48.2988 281.807 48.1793C282.516 48.0573 283.237 48 283.968 48Z" fill="white"/>
<path d="M317.47 24C319.107 24 320.753 24.0796 322.41 24.2387C324.066 24.3978 325.653 24.6539 327.173 25.012C328.691 25.3676 330.112 25.8151 331.432 26.3497C332.754 26.8843 333.902 27.5283 334.878 28.2818C335.853 29.0352 336.618 29.9005 337.171 30.8801C337.723 31.8598 338 32.9564 338 34.1623L330.426 35.2912C330.426 34.4383 330.06 33.6725 329.332 32.9887C328.602 32.3049 327.636 31.7305 326.433 31.2656C325.23 30.8006 323.848 30.445 322.291 30.1964C320.733 29.9477 319.127 29.8259 317.468 29.8259C315.891 29.8259 314.333 29.9403 312.793 30.1665C311.256 30.3953 309.879 30.7359 308.666 31.191C307.453 31.6485 306.468 32.2154 305.708 32.8992C304.947 33.583 304.569 34.3811 304.569 35.2912V47.6516C304.569 48.5617 304.947 49.3499 305.708 50.0138C306.468 50.6777 307.453 51.2322 308.666 51.6773C309.879 52.1223 311.253 52.453 312.793 52.6719C314.333 52.8907 315.891 52.9976 317.468 52.9976C319.124 52.9976 320.731 52.8807 322.291 52.642C323.848 52.4058 325.23 52.0627 326.433 51.6176C327.636 51.1725 328.602 50.618 329.332 49.9541C330.062 49.2902 330.426 48.5219 330.426 47.6516L338 49.5513C338 50.6205 337.723 51.6027 337.171 52.4928C336.618 53.383 335.856 54.1812 334.878 54.8848C333.902 55.5885 332.754 56.1977 331.432 56.7124C330.112 57.2271 328.691 57.6523 327.173 57.9905C325.655 58.3262 324.066 58.5798 322.41 58.7489C320.753 58.9155 319.107 59 317.47 59C315.834 59 314.19 58.9155 312.546 58.7489C310.899 58.5798 309.315 58.3262 307.797 57.9905C306.279 57.6523 304.863 57.2271 303.551 56.7124C302.239 56.1977 301.095 55.5885 300.12 54.8848C299.144 54.1836 298.379 53.3904 297.827 52.5077C297.275 51.6275 297 50.6429 297 49.5513V34.1623C297 32.9564 297.275 31.8598 297.827 30.8801C298.379 29.9005 299.144 29.0327 300.12 28.2818C301.095 27.5283 302.239 26.8868 303.551 26.3497C304.863 25.8151 306.277 25.3701 307.797 25.012C309.315 24.6564 310.899 24.3978 312.546 24.2387C314.19 24.0796 315.831 24 317.47 24Z" fill="white"/>
<path d="M353 58H346V14H353V58Z" fill="white"/>
<path d="M370.854 46.804C370.854 47.7019 371.188 48.455 371.853 49.0609C372.516 49.6668 373.41 50.1599 374.531 50.5401C375.652 50.9228 376.947 51.1951 378.414 51.3619C379.884 51.5287 381.411 51.6121 382.998 51.6121C384.664 51.6121 386.231 51.5189 387.7 51.3325C389.17 51.146 390.448 50.8639 391.542 50.4837C392.633 50.101 393.494 49.6079 394.13 49.0045C394.765 48.3986 395.084 47.6651 395.084 46.8065V24L403 24.5863V48.6782C403 49.733 402.736 50.702 402.213 51.5802C401.687 52.4584 400.957 53.2459 400.026 53.9401C399.094 54.6343 397.991 55.2354 396.723 55.7431C395.452 56.2509 394.08 56.6704 392.6 57.004C391.123 57.3352 389.566 57.5854 387.927 57.7522C386.291 57.9166 384.649 58 383 58C381.334 58 379.687 57.9166 378.06 57.7522C376.434 57.5854 374.879 57.3352 373.402 57.004C371.925 56.6704 370.55 56.2509 369.28 55.7431C368.009 55.2354 366.908 54.6343 365.977 53.9401C365.045 53.2483 364.313 52.4658 363.79 51.5949C363.264 50.7266 363 49.7551 363 48.6782V24.5863L370.857 24V46.804H370.854Z" fill="white"/>
<path d="M431.735 24.2933C434.767 24.2933 437.483 24.5061 439.874 24.9292C442.268 25.3524 444.286 26.0081 445.93 26.8964C447.575 27.7822 448.831 28.9056 449.699 30.2666C450.565 31.625 451 33.2408 451 35.114V47.1768C451 49.05 450.567 50.6658 449.699 52.0267C448.831 53.3852 447.577 54.5111 445.93 55.3969C444.286 56.2827 442.268 56.9385 439.874 57.3641C437.483 57.7872 434.767 58 431.735 58C430.039 58 428.293 57.9109 426.493 57.7328C424.692 57.5546 422.946 57.3839 421.252 57.2156C419.561 57.0498 418.015 56.8098 416.611 56.498C415.208 56.1862 414.004 55.919 413 55.6938V13H420.743V26.4213C422.496 25.7903 424.331 25.2781 426.253 24.8847C428.174 24.4913 429.999 24.2933 431.735 24.2933ZM429.606 29.794C428.582 29.794 427.645 29.8632 426.799 30.0018C425.951 30.1404 425.17 30.3161 424.45 30.5338C423.73 30.7516 423.065 30.9941 422.454 31.2588C421.843 31.5261 421.272 31.7859 420.74 32.0407V50.6707C421.272 50.8489 421.547 50.938 421.561 50.9404C421.576 50.9429 421.586 50.9454 421.584 50.9429C421.581 50.9429 423.035 51.1335 425.946 51.5145C428.857 51.8956 430.662 52.0861 431.367 52.0861C432.43 52.0861 433.469 52.0713 434.48 52.0416C435.492 52.0119 436.437 51.9277 437.312 51.7916C438.187 51.6531 438.989 51.4452 439.718 51.1706C440.448 50.8959 441.073 50.5049 441.598 50.0026C442.122 49.5003 442.528 48.8792 442.819 48.1419C443.111 47.402 443.257 46.4914 443.257 45.4051V36.7125C443.257 35.1561 442.894 33.9188 442.164 33.0033C441.434 32.0853 440.45 31.3924 439.209 30.9198C437.97 30.4472 436.521 30.1429 434.866 30.0043C433.212 29.8632 431.458 29.794 429.606 29.794Z" fill="white"/>
<path d="M16.9831 44L8.97904 16.763L32.5434 23.9872L52.6654 9.81455L73.1953 23.9872L95.5782 17.2545L89.8177 33.8946H96.4761L105 8.97452L102.135 7.89628L80.483 0L78.2519 6.06075L92.887 11.3993L73.1953 16.9009L52.6654 2.41477L32.5434 16.9009L0 6.55975L10.7027 44H16.9831Z" fill="white"/>
<path d="M14.2754 57.8712L15.0663 60H87.9732L88.6875 57.8712L90 54H13L14.2754 57.8712Z" fill="white"/>
</svg>
