<svg width="22" height="22" viewBox="0 0 22 22" fill="none" xmlns="http://www.w3.org/2000/svg">
<path fill-rule="evenodd" clip-rule="evenodd" d="M6.49719 4.91704C9.41055 4.68911 12.3372 4.68911 15.2505 4.91704L17.2075 5.07014C18.2976 5.15542 19.1893 5.97238 19.3695 7.05081C19.8203 9.74909 19.8203 12.5036 19.3695 15.2019C19.1893 16.2802 18.2976 17.0972 17.2075 17.1825L15.2505 17.3356C12.3372 17.5635 9.41055 17.5635 6.49719 17.3356L4.54021 17.1825C3.45016 17.0972 2.55842 16.2802 2.37824 15.2019C1.92739 12.5036 1.92739 9.74909 2.37824 7.05081C2.55842 5.97238 3.45016 5.15542 4.54021 5.07014L6.49719 4.91704ZM9.12705 13.2837V8.96895C9.12705 8.76529 9.34924 8.63949 9.52383 8.74428L13.1195 10.9017C13.2892 11.0034 13.2892 11.2492 13.1195 11.351L9.52383 13.5084C9.34924 13.6132 9.12705 13.4873 9.12705 13.2837Z" fill="#FCCD03"/>
</svg>
